<svg width="52" height="52" viewBox="0 0 52 52" fill="none" xmlns="http://www.w3.org/2000/svg">
<path fill-rule="evenodd" clip-rule="evenodd" d="M4.3335 26.0002C4.3335 14.034 14.034 4.3335 26.0002 4.3335C37.9663 4.3335 47.6668 14.034 47.6668 26.0002C47.6668 32.5307 44.7776 38.3865 40.2076 42.3589C39.216 39.7044 37.4963 37.3709 35.2329 35.6341C32.5841 33.6017 29.3387 32.5 26 32.5C22.6613 32.5 19.4159 33.6017 16.7671 35.6341C14.5038 37.3709 12.7841 39.7043 11.7925 42.3587C7.22265 38.3863 4.3335 32.5306 4.3335 26.0002ZM36.4882 44.9459C36.4898 44.951 36.4914 44.956 36.493 44.9611C33.3842 46.6851 29.8068 47.6668 26.0002 47.6668C22.1934 47.6668 18.6159 46.6851 15.507 44.9609C15.5173 44.9286 15.5269 44.8959 15.5358 44.8628C16.153 42.5593 17.5131 40.5238 19.4051 39.072C21.2971 37.6202 23.6152 36.8333 26 36.8333C28.3848 36.8333 30.7029 37.6202 32.5949 39.072C34.4869 40.5238 35.847 42.5593 36.4642 44.8628C36.4717 44.8908 36.4797 44.9185 36.4882 44.9459ZM21.6667 19.5C21.6667 17.1068 23.6068 15.1667 26 15.1667C28.3932 15.1667 30.3333 17.1068 30.3333 19.5C30.3333 21.8932 28.3932 23.8333 26 23.8333C23.6068 23.8333 21.6667 21.8932 21.6667 19.5ZM26 10.8333C21.2135 10.8333 17.3333 14.7135 17.3333 19.5C17.3333 24.2865 21.2135 28.1667 26 28.1667C30.7865 28.1667 34.6667 24.2865 34.6667 19.5C34.6667 14.7135 30.7865 10.8333 26 10.8333Z" fill="white"/>
<rect x="5.41683" y="5.41683" width="41.1667" height="41.1667" rx="20.5833" stroke="white" stroke-width="2.16667"/>
</svg>
